<?xml version="1.0" encoding="utf-8"?>
<!-- Generator: Adobe Illustrator 16.0.0, SVG Export Plug-In . SVG Version: 6.00 Build 0)  -->
<!DOCTYPE svg PUBLIC "-//W3C//DTD SVG 1.0//EN" "http://www.w3.org/TR/2001/REC-SVG-20010904/DTD/svg10.dtd">
<svg version="1.0" id="Calque_1" xmlns="http://www.w3.org/2000/svg" xmlns:xlink="http://www.w3.org/1999/xlink" x="0px" y="0px"
	 width="55px" height="55px" viewBox="0 0 300 300" enable-background="new 0 0 300 300" xml:space="preserve">
<circle fill="none" stroke="#FFFFFF" stroke-width="10" stroke-miterlimit="10" cx="150" cy="150" r="144.5"/>
<g>
	<path fill="#FFFFFF" d="M52.665,133.789l12.504,34.375h-4.727l-4.426-12.16h-9.109l-4.404,12.16h-4.748l12.504-34.375H52.665z
		 M54.405,151.557l-2.943-8.057l-2.922,8.057H54.405z"/>
	<path fill="#FFFFFF" d="M79.434,150.525c-2.435-0.816-4.408-1.98-5.919-3.491c-1.511-1.511-2.267-3.384-2.267-5.618
		c0-2.191,0.784-4.075,2.353-5.65c1.568-1.575,3.47-2.363,5.704-2.363c2.206,0,4.096,0.781,5.672,2.342
		c0.888,0.859,1.633,2.228,2.234,4.104l-4.039,1.59c-0.487-1.317-0.931-2.177-1.332-2.578c-0.702-0.688-1.547-1.031-2.535-1.031
		c-1.003,0-1.855,0.348-2.557,1.042c-0.702,0.695-1.053,1.543-1.053,2.546c0,1.003,0.351,1.855,1.053,2.557
		c0.788,0.773,1.876,1.482,3.266,2.127c2.692,0.874,4.977,2.249,6.854,4.125c2.105,2.077,3.158,4.598,3.158,7.563
		s-1.049,5.496-3.147,7.595c-2.099,2.099-4.623,3.147-7.573,3.147c-2.965,0-5.493-1.053-7.584-3.158
		c-1.676-1.676-2.736-3.988-3.18-6.939l4.318-1.568c0.272,2.535,0.938,4.333,1.998,5.393c1.231,1.232,2.714,1.848,4.447,1.848
		c1.733,0,3.215-0.615,4.447-1.848c1.231-1.231,1.848-2.721,1.848-4.469c0-1.732-0.616-3.215-1.848-4.447
		C82.578,152.166,81.138,151.228,79.434,150.525z"/>
	<path fill="#FFFFFF" d="M103.088,150.525c-2.435-0.816-4.408-1.98-5.919-3.491c-1.511-1.511-2.267-3.384-2.267-5.618
		c0-2.191,0.784-4.075,2.353-5.65c1.568-1.575,3.47-2.363,5.704-2.363c2.206,0,4.096,0.781,5.672,2.342
		c0.888,0.859,1.633,2.228,2.234,4.104l-4.039,1.59c-0.487-1.317-0.931-2.177-1.332-2.578c-0.702-0.688-1.547-1.031-2.535-1.031
		c-1.003,0-1.855,0.348-2.557,1.042c-0.702,0.695-1.053,1.543-1.053,2.546c0,1.003,0.351,1.855,1.053,2.557
		c0.788,0.773,1.876,1.482,3.266,2.127c2.692,0.874,4.977,2.249,6.854,4.125c2.105,2.077,3.158,4.598,3.158,7.563
		s-1.049,5.496-3.147,7.595c-2.099,2.099-4.623,3.147-7.573,3.147c-2.965,0-5.493-1.053-7.584-3.158
		c-1.676-1.676-2.736-3.988-3.18-6.939l4.318-1.568c0.272,2.535,0.938,4.333,1.998,5.393c1.231,1.232,2.714,1.848,4.447,1.848
		c1.733,0,3.215-0.615,4.447-1.848c1.231-1.231,1.848-2.721,1.848-4.469c0-1.732-0.616-3.215-1.848-4.447
		C106.232,152.166,104.792,151.228,103.088,150.525z"/>
	<path fill="#FFFFFF" d="M122.875,133.789v34.375h-4.447v-34.375H122.875z"/>
	<path fill="#FFFFFF" d="M138.516,150.525c-2.435-0.816-4.408-1.98-5.919-3.491c-1.511-1.511-2.267-3.384-2.267-5.618
		c0-2.191,0.784-4.075,2.353-5.65c1.568-1.575,3.47-2.363,5.704-2.363c2.206,0,4.096,0.781,5.672,2.342
		c0.888,0.859,1.633,2.228,2.234,4.104l-4.039,1.59c-0.487-1.317-0.931-2.177-1.332-2.578c-0.702-0.688-1.547-1.031-2.535-1.031
		c-1.003,0-1.855,0.348-2.557,1.042c-0.702,0.695-1.053,1.543-1.053,2.546c0,1.003,0.351,1.855,1.053,2.557
		c0.788,0.773,1.876,1.482,3.266,2.127c2.692,0.874,4.977,2.249,6.854,4.125c2.105,2.077,3.158,4.598,3.158,7.563
		s-1.049,5.496-3.147,7.595c-2.099,2.099-4.623,3.147-7.573,3.147c-2.965,0-5.493-1.053-7.584-3.158
		c-1.676-1.676-2.736-3.988-3.18-6.939l4.318-1.568c0.272,2.535,0.938,4.333,1.998,5.393c1.231,1.232,2.714,1.848,4.447,1.848
		c1.733,0,3.215-0.615,4.447-1.848c1.231-1.231,1.848-2.721,1.848-4.469c0-1.732-0.616-3.215-1.848-4.447
		C141.66,152.166,140.22,151.228,138.516,150.525z"/>
	<path fill="#FFFFFF" d="M163.76,138.236v29.928h-4.469v-29.928h-8.014v-4.447h20.496v4.447H163.76z"/>
	<path fill="#FFFFFF" d="M176.049,138.881c-0.602-0.602-0.902-1.339-0.902-2.213c0-0.859,0.305-1.59,0.914-2.191
		c0.607-0.602,1.342-0.902,2.201-0.902c0.846,0,1.576,0.301,2.191,0.902c0.616,0.602,0.924,1.332,0.924,2.191
		c0,0.458-0.086,0.902-0.258,1.332l-2.32,4.705h-4.061L176.049,138.881z"/>
	<path fill="#FFFFFF" d="M198.457,133.789l12.504,34.375h-4.727l-4.426-12.16h-9.109l-4.404,12.16h-4.748l12.504-34.375H198.457z
		 M200.197,151.557l-2.943-8.057l-2.922,8.057H200.197z"/>
	<path fill="#FFFFFF" d="M218.523,133.789c5.586,0.029,9.94,1.611,13.063,4.748c3.422,3.452,5.135,7.599,5.135,12.439
		c0,4.855-1.713,9.002-5.135,12.439c-3.123,3.137-7.478,4.72-13.063,4.748h-3.266v-34.375H218.523z M219.705,138.322v25.33
		c3.538,0,6.438-1.139,8.701-3.416c2.55-2.549,3.825-5.636,3.825-9.26c0-3.609-1.275-6.696-3.825-9.26
		C226.144,139.454,223.243,138.322,219.705,138.322z"/>
	<path fill="#FFFFFF" d="M260.634,133.789v4.447h-14.072v10.506h14.072v4.447h-14.072v10.506h14.072v4.469h-18.52v-34.375H260.634z"
		/>
</g>
</svg>
