<svg xmlns="http://www.w3.org/2000/svg" xmlns:xlink="http://www.w3.org/1999/xlink" version="1.1" x="0px" y="0px" viewBox="0 0 60 75" enable-background="new 0 0 60 60" xml:space="preserve"><rect x="-340.0126648" y="-744.6329346" display="none" fill="#015b7e" width="500" height="500"/><g><path d="M58.1064606,17.172308"/></g><g><path fill="#015b7e" d="M55.1918945,5.7128906h-14.402832V0.8417969c0-0.2763672-0.2236328-0.5-0.5-0.5s-0.5,0.2236328-0.5,0.5v4.8710938   H18.8417969V0.8417969c0-0.2763672-0.2236328-0.5-0.5-0.5s-0.5,0.2236328-0.5,0.5v4.8710938H3.4394531   c-0.8271484,0-1.5,0.6728516-1.5,1.5v43.9052734c0,0.8271484,0.6728516,1.5,1.5,1.5h15.640564   c1.6918335,3.7105713,5.2333374,6.4406738,9.4370728,6.9492188c0.0888672,0.0117188,0.1733398,0.0234375,0.2529297,0.0302734   C29.184082,59.6376953,29.5947266,59.6582031,30,59.6582031c0.8452148,0,1.6850586-0.0878906,2.4960938-0.2617188   c3.8366089-0.8173828,6.8693848-3.4115601,8.3919678-6.7783203h14.303833c0.8271484,0,1.5-0.6728516,1.5-1.5V7.2128906   C56.6918945,6.3857422,56.019043,5.7128906,55.1918945,5.7128906z M32.2875977,58.4179688   c-1.1005859,0.2363281-2.2231445,0.3037109-3.4306641,0.1826172c-0.0683594-0.0048828-0.1318359-0.0136719-0.2412109-0.0292969   c-5.03125-0.6083984-9.0483398-4.7158203-9.5512695-9.7666016c-0.3115234-3.1503906,0.6772461-6.1660156,2.7841797-8.4921875   c2.0791016-2.2949219,5.0463867-3.6103516,8.1420898-3.6103516c0.3696289,0,0.7431641,0.0175781,1.1210938,0.0556641   c2.0825195,0.203125,4.0561523,1.0136719,5.7094727,2.34375c1.1738281,0.9365234,2.121582,2.0693359,2.8183594,3.3730469   c0.6967773,1.2675781,1.1235352,2.6425781,1.269043,4.0869141C41.4633789,52.1552734,37.7573242,57.2529297,32.2875977,58.4179688z    M55.6918945,51.1181641c0,0.2753906-0.2241211,0.5-0.5,0.5H41.2871704c0.5600586-1.6088867,0.7949829-3.3571167,0.6166382-5.15625   c-0.1591797-1.5791016-0.6259766-3.0830078-1.3847656-4.4648438c-0.7592773-1.4179688-1.793457-2.6552734-3.0722656-3.6757812   c-1.8037109-1.4521484-3.9604492-2.3369141-6.2368164-2.5595703c-3.8623047-0.3789062-7.5644531,1.078125-10.1025391,3.8798828   c-2.2988281,2.5380859-3.3779297,5.8271484-3.0380859,9.2617188c0.093689,0.9406738,0.3068848,1.8479614,0.6104736,2.7148438   H3.4394531c-0.2758789,0-0.5-0.2246094-0.5-0.5V7.2128906c0-0.2753906,0.2241211-0.5,0.5-0.5h14.4023438v4.8710938   c0,0.2763672,0.2236328,0.5,0.5,0.5s0.5-0.2236328,0.5-0.5V6.7128906h20.9472656v4.8710938c0,0.2763672,0.2236328,0.5,0.5,0.5   s0.5-0.2236328,0.5-0.5V6.7128906h14.402832c0.2758789,0,0.5,0.2246094,0.5,0.5V51.1181641z"/><path fill="#015b7e" d="M50.0644531,20.1240234H8.5664062c-0.2763672,0-0.5,0.2236328-0.5,0.5s0.2236328,0.5,0.5,0.5h41.4980469   c0.2763672,0,0.5-0.2236328,0.5-0.5S50.3408203,20.1240234,50.0644531,20.1240234z"/><path fill="#015b7e" d="M36.347168,46.2685547h-0.559082c-0.0219727-0.0888672-0.0454102-0.1777344-0.0712891-0.265625l0.4848633-0.2802734   c0.3925781-0.2275391,0.5283203-0.7324219,0.3017578-1.1259766l-0.5878906-1.0185547   c-0.21875-0.3789062-0.7397461-0.5214844-1.1259766-0.3017578l-0.4702148,0.296875   c-0.0678711-0.0722656-0.1381836-0.1425781-0.2099609-0.2109375l0.28125-0.4863281   c0.2260742-0.3925781,0.090332-0.8974609-0.3027344-1.1259766l-1.0170898-0.5859375   c-0.3798828-0.2226562-0.9082031-0.078125-1.1274414,0.3007812l-0.2792969,0.484375   c-0.0878906-0.0253906-0.1762695-0.0488281-0.2661133-0.0712891v-0.5585938c0-0.4550781-0.3701172-0.8251953-0.824707-0.8251953   h-1.1738281c-0.4545898,0-0.824707,0.3701172-0.824707,0.8251953v0.5595703   c-0.0947266,0.0224609-0.1855469,0.0478516-0.2641602,0.0732422l-0.2817383-0.4873047   c-0.2182617-0.3789062-0.7475586-0.5205078-1.1254883-0.3017578l-1.019043,0.5878906   c-0.3925781,0.2275391-0.5283203,0.7324219-0.3017578,1.1259766l0.2807617,0.4853516   c-0.0664062,0.0634766-0.1308594,0.1279297-0.1938477,0.1943359l-0.4873047-0.28125   c-0.3813477-0.2177734-0.9057617-0.0761719-1.1254883,0.3027344l-0.5864258,1.0185547   c-0.2280273,0.3925781-0.0927734,0.8984375,0.3012695,1.1259766l0.484375,0.2802734   c-0.0253906,0.0878906-0.0493164,0.1757812-0.0708008,0.265625h-0.5595703c-0.4545898,0-0.824707,0.3701172-0.824707,0.8242188   v1.1738281c0,0.4550781,0.3701172,0.8251953,0.824707,0.8251953h0.5595703   c0.0214844,0.0888672,0.0449219,0.1777344,0.0708008,0.265625l-0.4848633,0.2802734   c-0.1904297,0.1103516-0.3266602,0.2880859-0.3837891,0.5c-0.0571289,0.2128906-0.0273438,0.4355469,0.0825195,0.6259766   l0.5874023,1.0175781c0.2192383,0.3798828,0.7485352,0.5205078,1.1259766,0.3027344l0.4702148-0.2978516   c0.0678711,0.0722656,0.1376953,0.1416016,0.2099609,0.2109375l-0.28125,0.4873047   c-0.2260742,0.3925781-0.0908203,0.8974609,0.3032227,1.1259766l1.0170898,0.5859375   c0.3808594,0.21875,0.9067383,0.078125,1.1264648-0.3017578l0.2802734-0.4833984   c0.0878906,0.0253906,0.1762695,0.0488281,0.265625,0.0703125v0.5595703c0,0.4541016,0.3701172,0.8242188,0.824707,0.8242188   h1.1738281c0.4545898,0,0.824707-0.3701172,0.824707-0.8242188v-0.5595703   c0.0952148-0.0224609,0.1855469-0.0478516,0.2641602-0.0732422l0.2817383,0.4863281   c0.2192383,0.3798828,0.7470703,0.5195312,1.1264648,0.3027344l1.0180664-0.5878906   c0.3930664-0.2275391,0.5283203-0.7324219,0.3017578-1.1259766l-0.2802734-0.4863281   c0.065918-0.0634766,0.1303711-0.1279297,0.1928711-0.1933594l0.4863281,0.2792969   c0.3798828,0.21875,0.9067383,0.078125,1.1269531-0.3017578l0.5878906-1.0185547   c0.2260742-0.3925781,0.0908203-0.8974609-0.3027344-1.125l-0.484375-0.2802734   c0.0258789-0.0878906,0.0493164-0.1767578,0.0712891-0.265625h0.559082c0.4545898,0,0.824707-0.3701172,0.824707-0.8251953   v-1.1738281C37.171875,46.6386719,36.8017578,46.2685547,36.347168,46.2685547z M36.171875,48.0917969h-0.5302734   c-0.3881836,0-0.7172852,0.2685547-0.800293,0.6542969c-0.0322266,0.1494141-0.0722656,0.2978516-0.1181641,0.4414062   c-0.1181641,0.3720703,0.0322266,0.7675781,0.3676758,0.9628906l0.4584961,0.265625l-0.4121094,0.7138672l-0.4584961-0.2636719   c-0.3232422-0.1884766-0.7631836-0.1191406-1.0195312,0.1611328c-0.1035156,0.1142578-0.2119141,0.2226562-0.324707,0.3251953   c-0.2900391,0.2636719-0.3574219,0.6826172-0.1640625,1.0175781l0.2675781,0.4648438l-0.7050781,0.4267578l-0.2768555-0.4785156   c-0.1884766-0.3251953-0.6069336-0.4794922-0.9614258-0.3662109c-0.144043,0.0458984-0.2910156,0.0859375-0.4433594,0.1181641   c-0.3847656,0.0820312-0.6533203,0.4111328-0.6533203,0.7998047v0.5302734H29.574707v-0.5302734   c0-0.3886719-0.2685547-0.7177734-0.6552734-0.8007812c-0.1499023-0.03125-0.2973633-0.0712891-0.4394531-0.1162109   c-0.362793-0.1191406-0.7758789,0.0400391-0.9633789,0.3662109l-0.265625,0.4589844l-0.7143555-0.4121094l0.265625-0.4609375   c0.1933594-0.3349609,0.1259766-0.7539062-0.1630859-1.0166016c-0.1137695-0.1035156-0.222168-0.2119141-0.3261719-0.3261719   c-0.2558594-0.2802734-0.7001953-0.3466797-1.0166016-0.1630859l-0.4506836,0.2832031l-0.4223633-0.7314453l0.4609375-0.2666016   c0.3344727-0.1943359,0.484375-0.5908203,0.3652344-0.9609375c-0.0458984-0.1455078-0.0854492-0.2929688-0.1181641-0.4433594   c-0.0830078-0.3847656-0.4121094-0.6533203-0.800293-0.6533203h-0.5302734v-0.8232422h0.5302734   c0.3881836,0,0.7172852-0.2685547,0.800293-0.6523438c0.0327148-0.1513672,0.0722656-0.2988281,0.1176758-0.4423828   c0.1206055-0.3740234-0.0307617-0.7705078-0.3666992-0.9638672l-0.4589844-0.265625l0.4121094-0.7148438l0.4609375,0.2666016   c0.3242188,0.1875,0.7641602,0.1142578,1.0170898-0.1640625c0.1030273-0.1132812,0.2109375-0.2216797,0.324707-0.3242188   c0.2895508-0.2636719,0.3574219-0.6816406,0.1640625-1.0185547l-0.2675781-0.4638672l0.7055664-0.4267578l0.2758789,0.4775391   c0.1879883,0.3251953,0.6074219,0.4824219,0.9619141,0.3671875c0.1450195-0.0458984,0.293457-0.0859375,0.4433594-0.1191406   c0.3847656-0.0820312,0.6533203-0.4111328,0.6533203-0.7998047v-0.5302734h0.8232422v0.5302734   c0,0.3886719,0.2685547,0.7177734,0.652832,0.7998047c0.1508789,0.0332031,0.2988281,0.0732422,0.4418945,0.1181641   c0.3608398,0.1191406,0.7744141-0.0390625,0.9643555-0.3662109l0.2646484-0.4589844l0.7143555,0.4121094l-0.2661133,0.4609375   c-0.1928711,0.3359375-0.125,0.7539062,0.1650391,1.0175781c0.1132812,0.1025391,0.2211914,0.2109375,0.3232422,0.3232422   c0.2539062,0.2802734,0.6923828,0.3535156,1.0185547,0.1640625l0.4506836-0.2832031l0.4223633,0.7324219l-0.4584961,0.2646484   c-0.3359375,0.1933594-0.4873047,0.5898438-0.3681641,0.9628906c0.0458984,0.1445312,0.0859375,0.2929688,0.1181641,0.4433594   C34.9243164,47,35.253418,47.2685547,35.6416016,47.2685547h0.5302734V48.0917969z"/><path fill="#015b7e" d="M29.9863281,44.4111328c-1.8022461,0-3.2685547,1.4658203-3.2685547,3.2685547s1.4663086,3.2695312,3.2685547,3.2695312   s3.2685547-1.4667969,3.2685547-3.2695312S31.7885742,44.4111328,29.9863281,44.4111328z M29.9863281,49.9492188   c-1.2509766,0-2.2685547-1.0185547-2.2685547-2.2695312s1.0175781-2.2685547,2.2685547-2.2685547   s2.2685547,1.0175781,2.2685547,2.2685547S31.2373047,49.9492188,29.9863281,49.9492188z"/></g></svg>